<svg width="20" height="20" viewBox="0 0 20 20" fill="none" xmlns="http://www.w3.org/2000/svg">
<g clip-path="url(#clip0_2002_81)">
<path d="M10 20C15.5142 20 20 15.5142 20 10C20 4.48583 15.5142 0 10 0C4.48583 0 0 4.48583 0 10C0 15.5142 4.48583 20 10 20ZM10 1.25C14.825 1.25 18.75 5.175 18.75 10C18.75 14.825 14.825 18.75 10 18.75C5.175 18.75 1.25 14.825 1.25 10C1.25 5.175 5.175 1.25 10 1.25Z" fill="#969696"/>
<path d="M6.57997 11.7959L7.88664 11.2284L7.51997 11.5959C7.40247 11.7134 7.33664 11.8725 7.33664 12.0375V14.4834C7.33664 15.0434 8.0133 15.315 8.40331 14.925L9.71497 13.6134L12.5733 15.0425C12.9433 15.2275 13.3908 15.0084 13.4675 14.595L15.0983 5.62753C15.1841 5.14503 14.7091 4.75503 14.255 4.93336L3.6583 9.08086C3.1833 9.26586 3.11997 9.91586 3.54997 10.19L5.99497 11.75C6.16997 11.8617 6.39081 11.8792 6.57997 11.7959ZM13.6683 6.50669L12.3875 13.5525L9.87081 12.295C9.62747 12.1734 9.33747 12.2242 9.14997 12.4125L8.58664 12.9759V12.2984L11.0925 9.79253C11.5783 9.30669 11.0316 8.50503 10.4016 8.77753L6.38747 10.5192L5.25914 9.79919L13.6683 6.50669Z" fill="#969696"/>
</g>
<defs>
<clipPath id="clip0_2002_81">
<rect width="20" height="20" fill="white"/>
</clipPath>
</defs>
</svg>
