<svg width="20" height="20" viewBox="0 0 20 20" fill="none" xmlns="http://www.w3.org/2000/svg">
<path d="M5.78336 17.1917C7.01669 17.9167 8.45835 18.3334 10 18.3334C14.6 18.3334 18.3334 14.6 18.3334 10C18.3334 5.40002 14.6 1.66669 10 1.66669C5.40002 1.66669 1.66669 5.40002 1.66669 10C1.66669 11.5167 2.07504 12.9417 2.78338 14.1667L1.66669 18.3334L5.78336 17.1917Z" stroke="#969696" stroke-width="1.5" stroke-miterlimit="10" stroke-linecap="round" stroke-linejoin="round"/>
<path d="M14.1666 12.6417C14.1666 12.7917 14.1333 12.95 14.0583 13.1C13.9833 13.25 13.8917 13.3917 13.775 13.525C13.5667 13.75 13.3417 13.9166 13.0917 14.0166C12.8417 14.125 12.5666 14.175 12.275 14.175C11.85 14.175 11.3916 14.075 10.9166 13.8667C10.4333 13.6583 9.95832 13.3833 9.48332 13.0416C8.99998 12.6916 8.54997 12.3 8.11664 11.875C7.6833 11.4416 7.3 10.9833 6.95 10.5083C6.60834 10.0333 6.3333 9.5583 6.1333 9.0833C5.9333 8.6083 5.83331 8.14998 5.83331 7.71665C5.83331 7.43332 5.88331 7.15832 5.98331 6.90832C6.08331 6.64998 6.24165 6.41665 6.46665 6.20832C6.73332 5.94165 7.02497 5.81665 7.3333 5.81665C7.44997 5.81665 7.56666 5.84165 7.675 5.89165C7.78333 5.94165 7.8833 6.01665 7.9583 6.12498L8.925 7.49163C9 7.59997 9.05829 7.69164 9.09162 7.7833C9.13329 7.87497 9.14996 7.9583 9.14996 8.04164C9.14996 8.14164 9.11664 8.24165 9.05831 8.34165C8.99998 8.44165 8.925 8.54164 8.825 8.64164L8.50833 8.97497C8.45833 9.02497 8.44165 9.07498 8.44165 9.14164C8.44165 9.17498 8.45 9.20831 8.45833 9.24164C8.475 9.27497 8.48331 9.29998 8.49165 9.32498C8.56665 9.46664 8.69996 9.64163 8.88329 9.8583C9.07496 10.075 9.27499 10.3 9.49166 10.5166C9.71666 10.7416 9.93331 10.9416 10.1583 11.1333C10.375 11.3166 10.5583 11.4416 10.7 11.5166C10.725 11.525 10.75 11.5416 10.775 11.55C10.8083 11.5666 10.8416 11.5666 10.8833 11.5666C10.9583 11.5666 11.0083 11.5416 11.0583 11.4916L11.375 11.175C11.4833 11.0666 11.5833 10.9916 11.675 10.9416C11.775 10.8833 11.8666 10.85 11.975 10.85C12.0583 10.85 12.1416 10.8666 12.2333 10.9083C12.325 10.95 12.425 11 12.525 11.075L13.9083 12.0583C14.0166 12.1333 14.0916 12.225 14.1416 12.325C14.1416 12.425 14.1666 12.525 14.1666 12.6417Z" stroke="#969696" stroke-width="1.5" stroke-miterlimit="10"/>
</svg>
